<mxfile host="app.diagrams.net" modified="2021-04-05T13:22:58.022Z" agent="5.0 (X11; Linux x86_64) AppleWebKit/537.36 (KHTML, like Gecko) Chrome/89.0.4389.90 Safari/537.36" etag="M01ThwnrssKVX5zszFQ3" version="14.5.7" type="github">
  <diagram id="Ce9p5Uoo5V55g3IsSZXp" name="Page-1">
    <mxGraphModel dx="1354" dy="806" grid="1" gridSize="10" guides="1" tooltips="1" connect="1" arrows="1" fold="1" page="1" pageScale="1" pageWidth="827" pageHeight="1169" math="0" shadow="0">
      <root>
        <mxCell id="0" />
        <mxCell id="1" parent="0" />
        <mxCell id="lBvxNcB6RZUgHxDEI5Oi-2" value="" style="rounded=0;whiteSpace=wrap;html=1;" vertex="1" parent="1">
          <mxGeometry x="30" y="200" width="740" height="210" as="geometry" />
        </mxCell>
        <mxCell id="lBvxNcB6RZUgHxDEI5Oi-3" value="&lt;span style=&quot;font-size: 19px&quot;&gt;исполнительное устройство&lt;/span&gt;" style="rounded=0;whiteSpace=wrap;html=1;" vertex="1" parent="1">
          <mxGeometry x="30" y="230" width="740" as="geometry" />
        </mxCell>
        <mxCell id="lBvxNcB6RZUgHxDEI5Oi-4" value="&lt;font style=&quot;font-size: 17px&quot;&gt;сервопривод, движки&lt;/font&gt;" style="whiteSpace=wrap;html=1;aspect=fixed;" vertex="1" parent="1">
          <mxGeometry x="60" y="250" width="130" height="130" as="geometry" />
        </mxCell>
        <mxCell id="lBvxNcB6RZUgHxDEI5Oi-6" value="&lt;font style=&quot;font-size: 18px&quot;&gt;Датчики, ограничения поворота.&lt;/font&gt;" style="whiteSpace=wrap;html=1;aspect=fixed;" vertex="1" parent="1">
          <mxGeometry x="580" y="250" width="130" height="130" as="geometry" />
        </mxCell>
        <mxCell id="lBvxNcB6RZUgHxDEI5Oi-8" value="&lt;font style=&quot;font-size: 17px&quot;&gt;Датчики состояния.&lt;/font&gt;" style="whiteSpace=wrap;html=1;aspect=fixed;" vertex="1" parent="1">
          <mxGeometry x="50" y="440" width="150" height="150" as="geometry" />
        </mxCell>
        <mxCell id="lBvxNcB6RZUgHxDEI5Oi-9" value="&lt;font style=&quot;font-size: 17px&quot;&gt;Устройство управления.&lt;/font&gt;" style="rounded=1;whiteSpace=wrap;html=1;" vertex="1" parent="1">
          <mxGeometry x="300" y="450" width="380" height="110" as="geometry" />
        </mxCell>
        <mxCell id="lBvxNcB6RZUgHxDEI5Oi-10" value="" style="endArrow=classic;html=1;entryX=1;entryY=0.5;entryDx=0;entryDy=0;" edge="1" parent="1" target="lBvxNcB6RZUgHxDEI5Oi-8">
          <mxGeometry width="50" height="50" relative="1" as="geometry">
            <mxPoint x="300" y="514.5" as="sourcePoint" />
            <mxPoint x="240" y="514.5" as="targetPoint" />
          </mxGeometry>
        </mxCell>
        <mxCell id="lBvxNcB6RZUgHxDEI5Oi-11" value="" style="endArrow=classic;html=1;" edge="1" parent="1">
          <mxGeometry width="50" height="50" relative="1" as="geometry">
            <mxPoint x="520" y="449" as="sourcePoint" />
            <mxPoint x="520" y="410" as="targetPoint" />
            <Array as="points">
              <mxPoint x="520" y="440" />
            </Array>
          </mxGeometry>
        </mxCell>
        <mxCell id="lBvxNcB6RZUgHxDEI5Oi-12" value="&lt;font style=&quot;font-size: 17px&quot;&gt;Сервер&lt;/font&gt;" style="rounded=0;whiteSpace=wrap;html=1;" vertex="1" parent="1">
          <mxGeometry x="150" y="640" width="250" height="100" as="geometry" />
        </mxCell>
        <mxCell id="lBvxNcB6RZUgHxDEI5Oi-13" value="" style="endArrow=classic;startArrow=classic;html=1;entryX=0.25;entryY=1;entryDx=0;entryDy=0;exitX=0.75;exitY=0;exitDx=0;exitDy=0;" edge="1" parent="1" source="lBvxNcB6RZUgHxDEI5Oi-12" target="lBvxNcB6RZUgHxDEI5Oi-9">
          <mxGeometry width="50" height="50" relative="1" as="geometry">
            <mxPoint x="414" y="650" as="sourcePoint" />
            <mxPoint x="464" y="600" as="targetPoint" />
          </mxGeometry>
        </mxCell>
      </root>
    </mxGraphModel>
  </diagram>
</mxfile>
